<?xml version="1.0" standalone="no"?>
<!DOCTYPE svg PUBLIC "-//W3C//DTD SVG 20010904//EN"
 "http://www.w3.org/TR/2001/REC-SVG-20010904/DTD/svg10.dtd">
<svg version="1.0" xmlns="http://www.w3.org/2000/svg"
 width="1024.000000pt" height="1024.000000pt" viewBox="0 0 1024.000000 1024.000000"
 preserveAspectRatio="xMidYMid meet">

<g transform="translate(0.000000,1024.000000) scale(0.100000,-0.100000)"
fill="#000000" stroke="none">
<path d="M3681 8644 c-47 -39 -82 -106 -88 -167 -9 -83 7 -120 107 -251 50
-65 42 -118 -32 -204 -35 -40 -36 -71 -3 -102 45 -42 118 -22 173 47 98 125
92 219 -24 377 -74 101 -77 120 -25 180 68 78 51 146 -37 146 -29 0 -49 -7
-71 -26z"/>
<path d="M4104 8530 c-32 -13 -72 -67 -80 -106 -10 -52 13 -118 68 -192 26
-37 48 -75 48 -85 0 -25 -17 -55 -56 -100 -40 -43 -44 -82 -13 -121 42 -53
127 -21 188 70 66 100 61 183 -15 282 -84 107 -80 97 -50 142 37 56 34 85 -11
109 -25 13 -49 13 -79 1z"/>
<path d="M3229 8471 c-35 -35 -39 -44 -39 -90 0 -62 21 -105 84 -179 27 -31
46 -64 46 -77 0 -13 -18 -44 -40 -70 -47 -54 -52 -91 -17 -123 55 -52 144 -15
191 80 47 93 32 165 -58 287 -48 67 -55 95 -31 127 32 43 3 84 -59 84 -31 0
-46 -7 -77 -39z"/>
<path d="M3390 7799 c-141 -15 -347 -58 -490 -101 -351 -106 -543 -254 -626
-482 l-22 -61 -103 -6 c-254 -15 -475 -144 -616 -361 -94 -144 -133 -281 -133
-471 0 -170 27 -291 96 -427 78 -155 228 -310 373 -385 84 -43 289 -95 375
-95 l42 0 12 -59 c39 -188 199 -448 360 -583 221 -187 474 -309 765 -368 334
-69 758 -5 1097 165 102 51 218 124 267 168 33 29 36 17 13 -46 -43 -116 -129
-218 -275 -330 -89 -68 -230 -162 -320 -214 -38 -22 -108 -62 -154 -89 -46
-27 -172 -94 -280 -149 -133 -68 -197 -106 -199 -118 -11 -57 35 -114 157
-195 47 -31 141 -97 207 -147 269 -200 337 -244 614 -397 251 -140 351 -199
480 -284 69 -46 142 -90 163 -99 37 -15 41 -15 80 5 23 12 82 51 132 86 49 36
159 110 244 165 264 172 450 320 645 515 155 155 256 298 357 506 l52 108 41
-8 c76 -13 424 -6 546 12 501 74 984 274 1188 491 101 107 132 166 144 271 5
52 8 525 6 1163 l-4 1076 -25 71 c-71 196 -256 362 -526 472 -108 43 -412 130
-553 157 -249 48 -714 69 -1020 46 -363 -26 -748 -116 -1001 -234 -95 -44
-263 -145 -331 -199 -28 -22 -38 -26 -38 -14 0 42 -169 185 -289 245 -164 83
-429 154 -686 186 -139 17 -652 27 -765 14z m625 -149 c241 -16 566 -103 738
-196 111 -60 209 -148 233 -209 14 -38 15 -52 5 -92 -14 -53 -56 -126 -96
-163 l-25 -23 -24 26 c-67 73 -244 156 -459 216 -165 46 -289 62 -532 68 -436
10 -815 -52 -1078 -177 -88 -42 -177 -111 -177 -138 -1 -25 -109 93 -131 142
-58 128 20 247 232 353 175 88 508 171 764 191 150 12 393 13 550 2z m3064 -5
c117 -5 330 -34 541 -76 88 -17 245 -68 374 -121 267 -110 429 -263 443 -417
8 -88 -32 -166 -140 -268 -68 -64 -105 -89 -198 -136 -200 -99 -526 -192 -839
-237 -273 -40 -756 -42 -958 -5 -224 42 -595 151 -744 218 -168 77 -313 199
-368 310 -53 109 -41 198 39 294 39 46 73 71 167 125 212 118 463 212 664 248
69 12 175 31 235 42 61 11 182 23 270 27 156 7 239 7 514 -4z m-4835 -686 c8
-40 8 -120 0 -196 l-7 -60 -61 -11 c-87 -16 -201 -76 -261 -136 -68 -68 -95
-127 -102 -218 -9 -127 55 -280 153 -367 46 -40 161 -88 234 -98 22 -3 43 -10
46 -14 3 -5 2 -68 -2 -139 l-7 -130 -51 0 c-119 0 -277 67 -379 160 -60 55
-144 166 -181 237 -68 135 -85 513 -27 607 11 17 31 56 46 86 30 64 86 124
170 185 96 69 256 123 366 124 55 1 57 0 63 -30z m401 -219 c216 -104 296
-129 545 -176 330 -61 820 -54 1142 16 285 62 507 152 608 246 l25 23 -2 -337
c-10 -1293 -9 -1234 -27 -1297 -51 -175 -171 -315 -392 -457 -226 -145 -606
-242 -874 -224 -293 21 -645 146 -836 297 -79 63 -191 181 -243 257 -75 111
-149 312 -171 467 -11 77 -14 1158 -4 1267 l7 67 51 -45 c30 -27 99 -69 171
-104z m2607 -133 c159 -121 381 -213 768 -317 202 -54 371 -151 464 -265 65
-80 143 -244 156 -325 15 -105 24 -932 11 -1106 -17 -240 -56 -391 -151 -589
-171 -354 -470 -660 -932 -951 -84 -54 -186 -119 -225 -146 -113 -76 -114 -76
-192 -25 -36 24 -163 101 -281 172 -118 70 -282 170 -365 222 -82 52 -179 113
-215 135 -198 124 -480 321 -480 334 0 2 33 20 73 40 134 68 532 296 612 352
100 69 172 126 208 166 16 17 56 61 90 97 84 90 123 139 132 169 4 14 23 55
42 91 54 104 121 335 143 494 8 51 14 352 17 822 l5 742 24 -28 c13 -16 57
-54 96 -84z m3205 -869 l-2 -943 -22 -35 c-27 -44 -163 -176 -223 -217 -121
-82 -371 -186 -564 -234 -66 -17 -140 -37 -164 -45 -107 -35 -666 -80 -700
-56 -11 8 -10 31 8 133 15 89 24 197 30 384 11 327 4 992 -11 1060 -25 110
-108 280 -175 359 -19 22 -34 43 -34 48 0 5 100 8 223 7 212 -1 283 4 497 36
340 51 675 148 860 248 89 49 227 145 247 172 10 13 21 25 25 25 4 0 6 -424 5
-942z m-6207 567 l0 -266 -37 7 c-92 16 -158 66 -202 152 -49 97 -32 203 44
270 33 29 160 96 193 102 1 0 2 -119 2 -265z"/>
<path d="M6690 7289 c-286 -30 -487 -105 -556 -209 -86 -130 12 -246 262 -310
185 -48 462 -65 664 -39 173 21 359 86 423 147 47 45 80 108 72 140 -13 52
-55 111 -98 136 -195 115 -478 164 -767 135z"/>
<path d="M5271 5514 c-48 -61 -14 -108 105 -147 131 -42 131 -42 154 -5 24 39
26 81 5 101 -15 15 -199 77 -228 77 -9 0 -25 -12 -36 -26z"/>
<path d="M5740 5348 c-21 -35 -18 -70 8 -101 13 -14 216 -87 243 -87 15 0 39
58 39 93 0 20 -7 40 -17 49 -19 17 -204 78 -235 78 -10 0 -27 -14 -38 -32z"/>
<path d="M6225 5200 c-10 -11 -18 -34 -17 -51 1 -56 24 -75 128 -108 115 -37
138 -38 158 -9 22 30 21 91 -1 110 -18 15 -207 78 -236 78 -7 0 -22 -9 -32
-20z"/>
<path d="M4159 3777 c-15 -12 -31 -32 -37 -43 -13 -25 2 -42 89 -97 78 -49
101 -51 148 -11 17 14 31 32 31 39 0 14 -175 135 -194 135 -6 -1 -23 -11 -37
-23z"/>
<path d="M4622 3510 c-23 -17 -42 -36 -42 -44 0 -19 70 -80 119 -106 63 -32
119 -22 164 27 16 19 16 20 0 35 -32 28 -175 118 -188 118 -7 0 -31 -14 -53
-30z"/>
<path d="M5200 3105 c0 -9 6 -12 15 -9 8 4 12 10 9 15 -8 14 -24 10 -24 -6z"/>
<path d="M7735 5428 c-33 -10 -109 -33 -170 -49 -60 -17 -118 -38 -129 -49
-25 -24 -27 -93 -3 -117 30 -30 115 -22 258 25 70 23 142 52 160 65 43 29 50
73 19 117 -25 36 -48 37 -135 8z"/>
<path d="M8670 4885 c19 -19 36 -35 39 -35 3 0 -10 16 -29 35 -19 19 -36 35
-39 35 -3 0 10 -16 29 -35z"/>
</g>
</svg>
