<?xml version="1.0" standalone="no"?>
<!DOCTYPE svg PUBLIC "-//W3C//DTD SVG 20010904//EN"
 "http://www.w3.org/TR/2001/REC-SVG-20010904/DTD/svg10.dtd">
<svg version="1.0" xmlns="http://www.w3.org/2000/svg"
 width="225.000000pt" height="225.000000pt" viewBox="0 0 225.000000 225.000000"
 preserveAspectRatio="xMidYMid meet">

<g transform="translate(0.000000,225.000000) scale(0.100000,-0.100000)"
fill="#000000" stroke="none">
<path d="M135 2081 c3 -5 -2 -16 -11 -25 -8 -9 -12 -20 -9 -26 9 -15 41 -12
55 5 10 13 10 19 -5 35 -18 20 -41 28 -30 11z"/>
<path d="M410 2020 c0 -5 -6 -9 -12 -7 -8 1 -14 -11 -16 -30 -4 -37 22 -69 64
-79 30 -8 91 17 100 40 10 25 -19 71 -43 70 -12 0 -20 3 -17 8 3 4 -13 8 -35
8 -23 0 -41 -4 -41 -10z"/>
<path d="M698 1937 c-19 -29 -12 -47 18 -47 28 0 34 32 10 55 -12 12 -16 11
-28 -8z"/>
<path d="M260 1900 c-11 -11 -20 -29 -20 -40 0 -29 44 -70 75 -70 24 0 65 31
65 50 0 18 -23 59 -37 64 -11 4 -11 1 -3 -14 10 -19 9 -19 -17 -8 -38 17 -39
18 -23 28 13 8 12 10 -2 10 -10 0 -27 -9 -38 -20z"/>
<path d="M156 1858 c-6 -27 7 -43 28 -35 21 8 21 43 0 51 -22 8 -21 9 -28 -16z"/>
<path d="M664 1861 c4 -5 1 -11 -6 -13 -18 -6 0 -40 19 -36 22 4 30 38 11 49
-17 11 -31 11 -24 0z"/>
<path d="M714 1803 c4 -16 19 -38 34 -51 46 -38 55 -49 68 -89 20 -56 17 -73
-14 -86 -29 -13 -35 -33 -13 -46 16 -10 7 -16 -36 -26 -18 -3 -33 -12 -33 -18
0 -11 -76 -54 -90 -51 -3 1 -21 -15 -40 -34 -19 -20 -28 -32 -20 -27 8 5 3 -4
-12 -20 -16 -15 -28 -33 -28 -39 0 -6 -5 -18 -10 -26 -9 -13 -11 -13 -20 0 -7
11 -8 5 -4 -20 6 -31 27 -60 44 -60 3 0 10 10 15 23 8 18 17 21 46 19 21 -2
64 7 103 22 83 32 89 32 80 4 -10 -33 -32 -45 -89 -53 -27 -3 -61 -12 -74 -19
-43 -24 86 -40 258 -33 205 8 308 32 566 130 17 6 37 18 45 27 8 9 21 15 28
12 7 -2 31 8 53 22 34 23 38 29 29 46 -14 26 -27 25 -35 0 -3 -11 -12 -20 -20
-20 -7 0 -16 -6 -19 -12 -6 -14 3 27 12 52 3 9 -7 4 -23 -10 -17 -15 -26 -19
-23 -10 6 19 77 60 94 53 7 -2 22 5 33 16 23 23 27 41 10 41 -5 0 -7 5 -3 12
4 7 3 8 -4 4 -6 -4 -9 -13 -6 -20 7 -17 -13 -32 -58 -44 -51 -14 -50 5 1 25
25 10 38 21 37 31 -4 25 -25 26 -47 0 -17 -19 -20 -20 -15 -4 6 16 4 17 -9 6
-8 -7 -15 -21 -15 -31 0 -12 -5 -16 -15 -13 -16 7 -9 18 37 62 24 23 28 52 6
52 -5 0 -7 -4 -4 -8 3 -5 -5 -15 -18 -22 -14 -7 -26 -20 -29 -30 -6 -21 -47
-47 -47 -29 0 6 8 13 18 15 15 5 42 46 42 66 0 15 -30 8 -50 -12 -23 -23 -50
-29 -31 -6 9 11 6 12 -14 8 -14 -2 -28 -8 -31 -13 -11 -19 -21 -8 -16 19 4 26
4 26 -11 7 -16 -20 -16 -20 -10 3 5 20 2 22 -34 22 -22 0 -65 -5 -94 -11 -61
-12 -98 -18 -149 -24 -19 -2 -37 -5 -40 -6 -3 -1 -8 -1 -12 0 -5 0 -8 -3 -8
-7 0 -5 -7 -9 -15 -9 -8 0 -12 4 -9 8 8 14 -80 152 -129 202 -34 35 -52 47
-66 42 -11 -3 -22 -1 -26 5 -3 5 -15 10 -27 10 -17 0 -19 -4 -14 -27z m562
-384 c3 -6 2 -15 -2 -19 -5 -5 -17 4 -26 21 -17 28 -17 29 2 19 10 -6 22 -15
26 -21z m129 -19 c23 12 28 12 36 0 5 -8 7 -28 4 -43 -5 -31 -31 -62 -39 -49
-6 10 -36 9 -52 -1 -8 -4 -10 9 -6 43 3 36 0 58 -12 77 -14 23 -12 22 13 -6
29 -33 32 -34 56 -21z m-75 -19 c0 -14 -5 -33 -10 -41 -8 -12 -9 -9 -6 10 1
14 -1 38 -5 53 -7 24 -6 27 6 17 8 -7 15 -24 15 -39z m-722 -40 c-13 -15 -25
-27 -27 -25 -4 4 39 54 47 54 2 0 -7 -13 -20 -29z m578 -4 c15 6 19 -14 6 -35
-7 -9 -16 -10 -41 -1 l-32 11 20 20 c12 10 22 24 22 31 1 7 4 2 6 -10 3 -14 9
-20 19 -16z m-302 -34 c-17 -18 -29 -11 -21 11 4 9 13 13 21 10 14 -5 14 -8 0
-21z"/>
<path d="M583 1806 c3 -7 1 -18 -5 -24 -14 -14 10 -25 44 -20 29 4 38 38 9 38
-11 0 -23 5 -26 10 -9 15 -28 12 -22 -4z"/>
<path d="M373 1761 c-36 -22 -53 -49 -53 -81 0 -22 0 -22 20 1 l20 24 -10 -28
c-13 -38 -14 -37 19 -37 37 0 121 56 121 80 0 3 -8 15 -18 27 -25 32 -61 37
-99 14z"/>
<path d="M916 1762 c-10 -9 -7 -50 4 -57 15 -9 40 13 40 35 0 17 -33 34 -44
22z"/>
<path d="M623 1602 c-26 -4 -47 -27 -38 -42 10 -16 75 -12 82 6 8 21 -16 41
-44 36z"/>
<path d="M1988 1553 c7 -3 16 -2 19 1 4 3 -2 6 -13 5 -11 0 -14 -3 -6 -6z"/>
<path d="M1895 1540 c-3 -5 -14 -10 -23 -10 -10 0 -26 -11 -36 -25 -10 -14
-24 -25 -31 -25 -15 0 -25 -22 -25 -52 0 -17 8 -12 41 26 39 44 80 73 124 87
15 5 13 7 -12 8 -17 1 -35 -3 -38 -9z"/>
<path d="M2066 1525 c4 -8 8 -15 10 -15 2 0 4 7 4 15 0 8 -4 15 -10 15 -5 0
-7 -7 -4 -15z"/>
<path d="M1668 1474 c-4 -3 -14 -7 -24 -8 -10 -2 -20 -8 -22 -14 -6 -18 48
-14 55 3 6 17 0 29 -9 19z"/>
<path d="M2113 1428 c1 -31 5 -51 9 -45 11 17 9 69 -2 87 -7 10 -9 -2 -7 -42z"/>
<path d="M1520 1316 c-47 -24 -130 -58 -185 -76 -55 -18 -104 -38 -110 -43 -7
-6 -1 -7 15 -3 14 4 52 15 85 24 33 10 66 21 72 25 7 4 22 3 34 -3 11 -7 23
-9 26 -6 3 3 -2 8 -11 12 -14 5 -13 9 10 20 14 8 33 14 40 14 8 0 14 5 14 11
0 5 5 7 10 4 6 -3 10 -2 10 3 0 5 13 15 30 22 16 7 35 18 41 26 15 18 18 19
-81 -30z"/>
<path d="M2106 1345 c-3 -9 -6 -26 -5 -38 1 -16 4 -12 10 12 10 34 6 55 -5 26z"/>
<path d="M2070 1271 c0 -11 -4 -23 -10 -26 -5 -3 -10 -11 -10 -17 0 -7 6 -6
15 2 8 7 15 19 15 27 0 8 5 11 11 7 7 -4 10 -1 7 6 -7 22 -28 23 -28 1z"/>
<path d="M1485 1230 c-22 -5 -51 -6 -64 -3 -18 4 -22 3 -16 -7 6 -9 -1 -11
-29 -8 -33 4 -41 -1 -37 -24 2 -14 -51 -21 -59 -8 -4 7 -13 9 -20 5 -10 -6 -9
-10 4 -17 12 -7 14 -14 6 -28 -5 -10 -10 -35 -10 -56 0 -31 3 -36 20 -31 28 7
42 -24 41 -92 -1 -40 5 -70 21 -103 l23 -47 82 -3 c44 -2 79 0 77 4 -2 3 14
24 36 47 22 22 40 47 40 56 0 9 5 25 10 36 8 15 7 19 -4 19 -10 0 -23 24 -37
72 -20 64 -21 76 -9 121 12 46 11 51 -6 64 -10 7 -20 12 -23 12 -3 -1 -24 -5
-46 -9z"/>
<path d="M2045 1202 c-18 -12 -55 -64 -55 -76 0 -11 42 35 60 67 12 19 10 21
-5 9z"/>
<path d="M1175 1150 c-23 -6 -25 -8 -8 -9 12 0 30 -4 40 -7 14 -5 15 -4 4 4
-11 8 -10 11 5 15 10 2 12 5 4 5 -8 0 -28 -4 -45 -8z"/>
<path d="M1947 1083 c-15 -21 -27 -35 -27 -32 0 4 -19 -12 -43 -35 -23 -22
-41 -44 -39 -48 2 -5 -4 -8 -13 -8 -8 0 -18 -7 -21 -15 -4 -8 -10 -13 -14 -10
-11 7 -46 -26 -76 -71 -18 -27 -20 -34 -8 -23 11 9 32 27 48 40 71 58 228 218
224 229 -2 6 -16 -5 -31 -27z"/>
<path d="M512 797 c-6 -7 -9 -22 -7 -32 2 -11 4 -23 4 -26 2 -13 59 -30 87
-27 27 3 66 49 53 63 -5 4 -112 35 -123 35 -2 0 -8 -6 -14 -13z m46 -22 c-3
-3 -9 2 -12 12 -6 14 -5 15 5 6 7 -7 10 -15 7 -18z"/>
<path d="M1413 779 c-23 -7 -33 -16 -33 -29 0 -22 -16 -27 -22 -9 -3 8 -16 9
-43 4 l-40 -8 30 -7 c23 -6 25 -8 8 -9 -12 0 -24 -5 -28 -10 -10 -16 -118 -62
-170 -72 -77 -15 -163 -20 -145 -9 9 6 10 10 3 10 -6 0 -14 -4 -17 -9 -3 -5
-15 -11 -26 -14 -11 -3 -18 -2 -15 3 3 4 -11 8 -30 8 -19 0 -55 12 -81 26 -48
27 -69 33 -60 17 4 -5 -7 -4 -24 2 -16 6 -30 15 -30 20 0 4 9 3 21 -3 30 -16
34 -6 6 13 -22 14 -26 14 -46 0 -18 -12 -21 -21 -16 -42 3 -14 13 -32 23 -39
12 -9 13 -15 4 -24 -18 -18 -15 -43 8 -63 26 -23 11 -35 -45 -35 -45 0 -58 -7
-68 -32 -7 -21 26 -48 59 -48 31 0 35 -10 17 -41 -19 -32 -30 -35 -67 -17 -22
9 -29 8 -46 -7 -11 -10 -20 -25 -20 -33 0 -10 -5 -12 -17 -6 -10 4 -40 9 -66
12 -42 4 -49 1 -54 -17 -3 -11 -10 -18 -15 -15 -22 14 5 -42 33 -69 41 -38
102 -33 135 11 8 12 15 12 32 3 13 -7 37 -9 57 -5 28 5 36 3 42 -12 20 -53 85
-59 138 -13 19 17 35 27 35 21 0 -14 63 -42 97 -42 16 0 44 11 63 24 l35 23
12 -28 c14 -33 78 -69 125 -69 34 0 88 41 88 68 0 7 8 12 18 10 11 -2 18 -14
20 -38 5 -50 46 -90 93 -90 60 0 119 62 119 125 0 15 5 35 10 46 11 19 12 18
48 -6 41 -28 106 -34 137 -12 14 11 16 20 10 43 -4 16 -10 23 -12 16 -4 -10
-9 -9 -24 4 -10 9 -16 21 -12 26 3 6 -1 14 -8 19 -11 6 -9 12 8 28 12 11 28
30 36 41 l15 21 33 -20 c45 -27 108 -27 143 0 33 26 33 51 1 75 -36 27 -31 34
23 34 27 0 57 6 68 14 19 14 19 15 0 33 -10 10 -16 12 -12 6 9 -16 4 -16 -28
-2 -14 7 -23 16 -20 20 3 5 -9 9 -27 9 l-33 0 27 28 c29 30 37 53 12 32 -12
-10 -18 -10 -30 0 -19 16 -20 50 -1 50 7 0 16 9 19 20 4 16 -2 22 -31 30 -71
19 -112 8 -112 -29 0 -19 53 -47 58 -31 5 15 22 12 22 -4 0 -7 -8 -13 -17 -12
-31 3 -95 35 -89 45 10 15 -33 24 -49 11 -20 -17 -19 -69 2 -92 13 -15 15 -23
6 -36 -12 -19 -11 -19 -103 -1 -36 7 -68 17 -72 23 -6 10 18 56 37 68 44 29
74 55 75 65 0 6 -16 -4 -35 -23 -39 -37 -47 -42 -39 -19 4 10 0 15 -11 15 -9
0 -13 -4 -10 -10 3 -5 -3 -10 -14 -10 -14 0 -21 6 -21 18 0 20 -19 42 -34 41
-6 0 -26 -5 -43 -10z m-656 -152 c3 -4 -5 -7 -20 -7 -14 0 -28 4 -32 9 -6 11
41 8 52 -2z m789 -16 c-8 -12 -46 -21 -46 -11 0 5 8 11 18 13 29 8 33 7 28 -2z
m294 -1 c11 0 11 -3 2 -12 -7 -7 -12 -20 -12 -30 0 -12 -7 -18 -21 -18 -16 0
-19 4 -14 19 4 14 0 21 -16 26 -17 6 -19 9 -8 16 8 5 23 7 34 4 11 -2 27 -5
35 -5z m-724 -67 c10 -6 55 -16 98 -23 99 -15 106 -18 106 -41 0 -23 -8 -24
-32 -2 -11 10 -42 18 -76 21 -31 2 -65 11 -75 20 -12 10 -40 16 -87 17 -57 1
-73 5 -85 21 -29 38 -17 42 58 19 40 -12 82 -27 93 -32z m354 -9 c0 -36 -2
-37 -38 -28 -19 6 -22 11 -17 33 13 52 55 49 55 -5z m145 26 c-3 -5 -14 -10
-23 -9 -14 0 -13 2 3 9 27 11 27 11 20 0z m200 -26 l30 -14 -44 5 c-24 3 -51
10 -60 15 -27 16 40 11 74 -6z m-915 -7 c0 -9 -12 -14 -35 -14 -34 0 -42 6
-28 20 12 13 63 7 63 -6z m-86 -23 c6 -15 4 -15 -11 -3 -10 7 -20 15 -22 16
-2 2 3 3 11 3 9 0 19 -7 22 -16z m994 -24 c23 -6 46 -9 50 -6 4 2 12 -2 19 -9
10 -10 7 -14 -11 -19 -31 -8 -97 12 -120 36 -19 20 -19 20 0 15 10 -3 38 -11
62 -17z m-1054 -55 c4 -12 -3 -15 -32 -15 l-37 1 25 14 c32 18 37 18 44 0z
m133 -11 c-3 -3 -12 -4 -19 -1 -8 3 -5 6 6 6 11 1 17 -2 13 -5z m613 -13 c0
-5 -9 -7 -20 -4 -11 3 -20 7 -20 9 0 2 9 4 20 4 11 0 20 -4 20 -9z m59 -72
c-29 -31 -30 -31 -44 -13 -8 10 -15 22 -15 26 0 8 26 15 62 17 l26 1 -29 -31z
m-985 -7 c2 -4 -2 -15 -9 -25 -11 -16 -13 -16 -19 -1 -3 8 -6 20 -6 25 0 11
27 12 34 1z m519 -22 c5 -4 -5 -15 -22 -23 l-31 -15 0 29 c0 27 3 30 23 24 12
-4 26 -11 30 -15z m-558 -18 c-3 -3 -11 0 -18 7 -9 10 -8 11 6 5 10 -3 15 -9
12 -12z"/>
<path d="M135 706 c-34 -29 -29 -66 11 -85 35 -16 74 0 97 38 24 41 21 62 -3
26 -11 -16 -20 -25 -20 -18 0 6 4 14 9 17 5 3 7 15 4 26 -8 29 -62 27 -98 -4z"/>
<path d="M2010 722 c-24 -2 -48 -8 -52 -15 -10 -17 9 -45 43 -63 28 -14 33
-14 67 4 41 21 57 62 25 62 -11 0 -23 3 -28 8 -6 4 -30 6 -55 4z m77 -25 c15
-16 -8 -17 -63 -3 l-59 15 57 -3 c32 -1 61 -6 65 -9z"/>
<path d="M457 699 c-21 -12 -22 -32 -2 -49 8 -7 15 -23 15 -36 0 -28 19 -40
83 -49 55 -8 110 9 105 33 -4 19 -21 28 -78 44 -27 7 -38 13 -27 15 9 3 17 11
17 18 0 15 -35 29 -50 20 -5 -3 -18 -2 -28 4 -11 6 -24 6 -35 0z"/>
<path d="M286 599 c-24 -35 -2 -74 47 -84 18 -4 41 -16 53 -26 12 -11 37 -22
55 -25 68 -11 106 58 40 72 -14 3 -37 10 -50 15 -13 5 -31 7 -41 4 -13 -4 -19
1 -24 21 -4 14 -10 24 -13 21 -3 -3 -12 0 -20 8 -20 20 -29 19 -47 -6z"/>
<path d="M150 492 c0 -6 10 -18 22 -26 12 -9 19 -18 16 -22 -4 -3 -18 5 -32
19 l-26 26 -6 -25 c-13 -50 64 -114 119 -100 32 8 57 32 57 55 0 18 -42 63
-63 67 -66 14 -87 15 -87 6z m104 -28 c3 -8 2 -12 -4 -9 -6 3 -10 10 -10 16 0
14 7 11 14 -7z m-37 -60 c-3 -3 -12 -4 -19 -1 -8 3 -5 6 6 6 11 1 17 -2 13 -5z"/>
<path d="M1915 339 c-44 -39 -47 -78 -9 -108 15 -12 38 -21 51 -21 54 0 114
54 112 102 l0 23 -9 -22 c-5 -12 -18 -26 -29 -32 -28 -15 -35 -14 -17 4 8 8
19 15 25 15 13 0 14 13 4 24 -5 4 -9 12 -9 17 -1 5 -2 13 -3 17 0 5 -19 9 -41
10 -31 2 -47 -5 -75 -29z"/>
</g>
</svg>
